Coordinates
version=1
nRows=4
nColumns=114
inDegrees=yes

Units are S.I. units (second, meters, Newtons, ...)
If the header above contains a line with 'inDegrees', this indicates whether rotational values are in degrees (yes) or radians (no).

endheader 
time	pelvis_tilt	pelvis_list	pelvis_rotation	pelvis_tx	pelvis_ty	pelvis_tz	hip_flexion_l	hip_adduction_l	hip_rotation_l	hip_flexion_r	hip_adduction_r	hip_rotation_r	knee_angle_l	knee_angle_r	ankle_angle_l	ankle_angle_r	subtalar_angle_l	subtalar_angle_r	mtp_angle_l	mtp_angle_r	lumbar_extension	lumbar_bending	lumbar_rotation	arm_flex_l	arm_add_l	arm_rot_l	arm_flex_r	arm_add_r	arm_rot_r	elbow_flex_l	elbow_flex_r	pro_sup_l	pro_sup_r	addbrev_l/activation	addlong_l/activation	addmagDist_l/activation	addmagIsch_l/activation	addmagMid_l/activation	addmagProx_l/activation	bflh_l/activation	bfsh_l/activation	edl_l/activation	ehl_l/activation	fdl_l/activation	fhl_l/activation	gaslat_l/activation	gasmed_l/activation	glmax1_l/activation	glmax2_l/activation	glmax3_l/activation	glmed1_l/activation	glmed2_l/activation	glmed3_l/activation	glmin1_l/activation	glmin2_l/activation	glmin3_l/activation	grac_l/activation	iliacus_l/activation	perbrev_l/activation	perlong_l/activation	piri_l/activation	psoas_l/activation	recfem_l/activation	sart_l/activation	semimem_l/activation	semiten_l/activation	soleus_l/activation	tfl_l/activation	tibant_l/activation	tibpost_l/activation	vasint_l/activation	vaslat_l/activation	vasmed_l/activation	addbrev_r/activation	addlong_r/activation	addmagDist_r/activation	addmagIsch_r/activation	addmagMid_r/activation	addmagProx_r/activation	bflh_r/activation	bfsh_r/activation	edl_r/activation	ehl_r/activation	fdl_r/activation	fhl_r/activation	gaslat_r/activation	gasmed_r/activation	glmax1_r/activation	glmax2_r/activation	glmax3_r/activation	glmed1_r/activation	glmed2_r/activation	glmed3_r/activation	glmin1_r/activation	glmin2_r/activation	glmin3_r/activation	grac_r/activation	iliacus_r/activation	perbrev_r/activation	perlong_r/activation	piri_r/activation	psoas_r/activation	recfem_r/activation	sart_r/activation	semimem_r/activation	semiten_r/activation	soleus_r/activation	tfl_r/activation	tibant_r/activation	tibpost_r/activation	vasint_r/activation	vaslat_r/activation	vasmed_r/activation	
          3.80000000	          0.05160379	          0.54762790	         -4.48410500	          1.35457301	          0.91008765	         -0.22097011	         21.86694582	         -3.90238852	         16.69156173	         -2.44734077	         -0.71667597	         -2.48785254	         11.81576365	         24.79168582	         -0.11429658	         18.25943415	        -13.88886247	         -8.77044311	         -0.27803425	        -22.33423316	         -6.33101447	          2.50693812	          7.36852846	          0.39153251	         -6.38997344	         -8.13635069	         11.18928389	        -10.01850435	          1.45045140	         18.09154070	         37.47581431	         77.10135743	         79.53293168	          0.59919901	          0.68959474	          0.44578161	          0.38659528	          0.52725592	          0.61703592	          0.64308109	          0.68480488	          0.75338781	          0.65866001	          0.48511785	          0.37836246	          0.30008699	          0.19019687	          0.57526216	          0.53756336	          0.45566805	          0.39046353	          0.47406882	          0.55311907	          0.53614376	          0.57697665	          0.58976157	          0.64140288	          0.69744363	          0.67053581	          0.68603149	          0.68740044	          0.74803380	          0.38134952	          0.70099086	          0.68804200	          0.61889657	          0.05334492	          0.57587738	          0.82505778	          0.23930342	          0.19573486	          0.07140178	          0.14477051	          0.53683171	          0.71526877	          0.31752367	          0.37303158	          0.36983201	          0.36059272	          0.17130437	          0.62246159	          0.56691085	          0.58561380	          0.56450162	          0.55753807	          0.54839674	          0.48751122	          0.15816946	          0.11386366	          0.11011765	          0.87525187	          0.37442787	          0.16914885	          0.80910340	          0.60520957	          0.38983680	          0.41016469	          0.85349751	          0.52376437	          0.47219186	          0.15050018	          0.68849971	          0.72430317	          0.65846654	          0.24667168	          0.33139701	          0.18344421	          0.75904440	          0.68778479	          0.58334837	          0.32220622	          0.13861361	          0.26251817	
          3.81000000	          0.08840918	          0.56039021	         -4.57425584	          1.36059028	          0.91008536	         -0.22166914	         21.66676083	         -3.62201192	         16.62968804	         -2.74414131	         -0.86836436	         -2.65340177	         12.54617892	         25.00945001	         -0.55580724	         17.91709895	        -14.35069411	         -8.75427205	         -0.27421515	        -22.87180042	         -6.39305967	          2.19314872	          7.45424631	          0.47308627	         -6.46393972	         -8.12151416	         11.08516803	         -9.92434366	          1.54560703	         18.00641822	         37.28930222	         77.00898999	         79.45085803	          0.60997592	          0.70082122	          0.46064713	          0.39807969	          0.54061368	          0.62304983	          0.64957254	          0.67823956	          0.74792753	          0.65502037	          0.48917416	          0.38829156	          0.32049458	          0.21004399	          0.57241272	          0.53787493	          0.47340846	          0.37976195	          0.46630744	          0.54486260	          0.53126686	          0.57092628	          0.58445412	          0.64410577	          0.69245106	          0.67002702	          0.67875279	          0.67458767	          0.74646172	          0.36791439	          0.69359883	          0.70119000	          0.61914077	          0.05541918	          0.57271981	          0.81344373	          0.24444109	          0.20037549	          0.07276890	          0.14844505	          0.56718985	          0.75460864	          0.32485799	          0.37986021	          0.38334523	          0.36755274	          0.17254066	          0.62367879	          0.56661220	          0.58579373	          0.56421771	          0.55757542	          0.55567741	          0.50315077	          0.15342166	          0.11052503	          0.10884368	          0.86966800	          0.35316379	          0.16172728	          0.80629857	          0.58996926	          0.37726847	          0.41855036	          0.85507175	          0.52189515	          0.47314959	          0.14613519	          0.69401789	          0.70304151	          0.65665382	          0.25368732	          0.33544654	          0.19270674	          0.74994228	          0.69079328	          0.58198615	          0.31792629	          0.13510346	          0.26006414	
          3.82000000	          0.13184052	          0.56716529	         -4.67695331	          1.36678705	          0.91032476	         -0.22247476	         21.47094165	         -3.35412616	         16.48358274	         -3.02657577	         -1.02844489	         -2.78675896	         13.28374147	         25.26545054	         -1.04921573	         17.45232045	        -14.84517643	         -8.74240007	         -0.27050084	        -23.46255650	         -6.43426595	          1.90011509	          7.52172533	          0.53328754	         -6.52241679	         -8.10101772	         10.93569832	         -9.81741888	          1.62408840	         17.92478694	         37.05881439	         76.92322169	         79.37042665	          0.61872865	          0.70403793	          0.47394882	          0.41671319	          0.55142942	          0.62701831	          0.65908526	          0.67294549	          0.73271780	          0.65242469	          0.49900620	          0.41276014	          0.35651995	          0.24530152	          0.56734511	          0.53279729	          0.48561399	          0.37599713	          0.46391079	          0.53827030	          0.52899630	          0.56658324	          0.57992692	          0.64590607	          0.68739666	          0.64661458	          0.65114447	          0.65485224	          0.74162035	          0.34881117	          0.68697694	          0.72479561	          0.62783820	          0.06272141	          0.56718754	          0.82147285	          0.29999877	          0.20462318	          0.07442144	          0.15238529	          0.59396404	          0.78252248	          0.33390887	          0.39069125	          0.39793447	          0.37441086	          0.17551198	          0.62485806	          0.56760359	          0.58622040	          0.56321979	          0.55584791	          0.56047622	          0.51589952	          0.14958317	          0.10794899	          0.10819068	          0.86413835	          0.33494432	          0.15523990	          0.80275775	          0.57510832	          0.36527119	          0.42700431	          0.85548024	          0.52533075	          0.48057330	          0.14191426	          0.69644779	          0.67586694	          0.65398193	          0.26559571	          0.34347452	          0.19994887	          0.74040167	          0.69148386	          0.57751014	          0.31170113	          0.13156474	          0.25204049	
          3.83000000	          0.18023290	          0.56532892	         -4.79312742	          1.37315464	          0.91077030	         -0.22338316	         21.27500245	         -3.10130187	         16.26376058	         -3.28724602	         -1.19316213	         -2.88236189	         14.02311803	         25.57126767	         -1.56313445	         16.87594653	        -15.34289574	         -8.74534453	         -0.27413396	        -24.09979081	         -6.45377074	          1.63184402	          7.57271460	          0.56949549	         -6.56455499	         -8.07855238	         10.74205629	         -9.69778873	          1.68571539	         17.85155284	         36.78234259	         76.84432020	         79.29393423	          0.62362268	          0.70037358	          0.49109447	          0.44156585	          0.56119794	          0.62525060	          0.66610512	          0.66970575	          0.72077944	          0.64854282	          0.50577069	          0.43089956	          0.39054412	          0.28488110	          0.55688183	          0.51839491	          0.49058629	          0.39408695	          0.47409300	          0.53420864	          0.53363485	          0.56539134	          0.57574899	          0.64490150	          0.68015960	          0.63101504	          0.63370225	          0.63248362	          0.72548144	          0.32566183	          0.67656537	          0.74530801	          0.64221370	          0.07143950	          0.56131102	          0.81807003	          0.33554897	          0.20838270	          0.07598296	          0.15607864	          0.61675863	          0.80187806	          0.34410843	          0.40116998	          0.41283431	          0.38087287	          0.17944478	          0.62628224	          0.56923157	          0.58706082	          0.56210378	          0.55360246	          0.56331580	          0.52548743	          0.14656504	          0.10601767	          0.10800207	          0.85897161	          0.31955476	          0.14972253	          0.79901850	          0.56092221	          0.35499231	          0.43536195	          0.85496803	          0.52967311	          0.48909279	          0.13817374	          0.69601850	          0.64401536	          0.65075899	          0.28097477	          0.35276345	          0.20472475	          0.73097565	          0.69302190	          0.57227966	          0.30477663	          0.12742553	          0.24721243	
